<svg width="1920" height="1080" viewBox="0 0 1920 1080" fill="none" xmlns="http://www.w3.org/2000/svg">
<g clip-path="url(#clip0_254_15)">
<rect width="1920" height="1080" fill="white"/>
<path d="M1449.28 -56.1855C1483.68 -70.4776 1520.76 -42.5935 1516.69 -5.50781L1488.26 251.684L1488.26 251.686C1485.13 280.385 1457.82 300.151 1429.45 294.222H1429.45L1037.13 211.477H1037.13C990.058 201.477 984.019 136.74 1028.53 118.26L1028.53 118.259L1449.28 -56.1846L1449.28 -56.1855Z" stroke="#FF4806" stroke-width="4"/>
<path d="M1208.73 483.701C1195.71 447.832 1227.35 411.274 1264.95 419.232H1264.95L1421.49 452.256V452.257C1446.14 457.489 1462.87 480.504 1460.08 505.607L1460.08 505.609L1427.66 798.971C1421.96 850.003 1351.41 859.048 1333.17 810.941V810.94L1209.05 484.551L1209.04 484.547L1208.73 483.701Z" stroke="#FF4806" stroke-width="4"/>
<path d="M613.246 290.52C622.299 286.69 632.403 285.76 642.044 287.851L642.055 287.853L969.29 356.928L971.703 357.438V357.389C986.64 361.388 998.932 372.219 1004.69 386.651L1004.97 387.378L1363.54 1330.25L1363.54 1330.26C1366.32 1337.44 1367.26 1345.35 1366.45 1353.03C1361.45 1398.36 1302.52 1412.89 1277.07 1374.88L887.288 792.874L887.287 792.873L886.653 791.949C880.011 782.484 870.462 775.411 859.377 771.878H859.376L192.087 558.723H192.088C148.609 544.772 146.066 484.216 188.249 466.785L188.251 466.784L613.232 290.526L613.246 290.52Z" stroke="#FF4806" stroke-width="4"/>
</g>
<defs>
<clipPath id="clip0_254_15">
<rect width="1920" height="1080" fill="white"/>
</clipPath>
</defs>
</svg>
